<?xml version="1.0" encoding="UTF-8" standalone="no"?>
<svg
   xmlns:dc="http://purl.org/dc/elements/1.1/"
   xmlns:cc="http://creativecommons.org/ns#"
   xmlns:rdf="http://www.w3.org/1999/02/22-rdf-syntax-ns#"
   xmlns:svg="http://www.w3.org/2000/svg"
   xmlns="http://www.w3.org/2000/svg"
   xmlns:xlink="http://www.w3.org/1999/xlink"
   xmlns:sodipodi="http://sodipodi.sourceforge.net/DTD/sodipodi-0.dtd"
   xmlns:inkscape="http://www.inkscape.org/namespaces/inkscape"
   viewBox="0 0 280 280"
   version="1.1"
   id="svg192"
   sodipodi:docname="0.svg"
   inkscape:version="0.92.1 r15371">
  <metadata
     id="metadata196">
    <rdf:RDF>
      <cc:Work
         rdf:about="">
        <dc:format>image/svg+xml</dc:format>
        <dc:type
           rdf:resource="http://purl.org/dc/dcmitype/StillImage" />
        <dc:title></dc:title>
      </cc:Work>
    </rdf:RDF>
  </metadata>
  <sodipodi:namedview
     pagecolor="#ffffff"
     bordercolor="#666666"
     borderopacity="1"
     objecttolerance="10"
     gridtolerance="10"
     guidetolerance="10"
     inkscape:pageopacity="0"
     inkscape:pageshadow="2"
     inkscape:window-width="723"
     inkscape:window-height="480"
     id="namedview194"
     showgrid="false"
     inkscape:zoom="0.84285714"
     inkscape:cx="140"
     inkscape:cy="140"
     inkscape:window-x="0"
     inkscape:window-y="0"
     inkscape:window-maximized="0"
     inkscape:current-layer="svg192" />
  <defs
     id="defs92">
    <filter
       id="an">
      <feGaussianBlur
         stdDeviation="1.22659"
         id="feGaussianBlur2" />
    </filter>
    <filter
       id="ah">
      <feGaussianBlur
         stdDeviation=".30405"
         id="feGaussianBlur5" />
    </filter>
    <filter
       id="ai">
      <feGaussianBlur
         stdDeviation=".30043"
         id="feGaussianBlur8" />
    </filter>
    <filter
       id="aj">
      <feGaussianBlur
         stdDeviation="2.11969"
         id="feGaussianBlur11" />
    </filter>
    <filter
       id="ak"
       x="-.23978"
       y="-.23571"
       width="1.4796"
       height="1.4714">
      <feGaussianBlur
         stdDeviation="2.04874"
         id="feGaussianBlur14" />
    </filter>
    <filter
       id="al"
       x="-.07679"
       y="-.13274"
       width="1.1536"
       height="1.2655">
      <feGaussianBlur
         stdDeviation=".96791"
         id="feGaussianBlur17" />
    </filter>
    <filter
       id="am"
       x="-.10073"
       y="-.1241"
       width="1.2014"
       height="1.2482">
      <feGaussianBlur
         stdDeviation=".80792"
         id="feGaussianBlur20" />
    </filter>
    <filter
       id="ag"
       x="-.14979"
       y="-.06708"
       width="1.2996"
       height="1.1342">
      <feGaussianBlur
         stdDeviation="3.54971"
         id="feGaussianBlur23" />
    </filter>
    <linearGradient
       id="b">
      <stop
         offset="0"
         id="stop26" />
      <stop
         stop-color="#2f2f2f"
         offset="1"
         id="stop28" />
    </linearGradient>
    <linearGradient
       id="g">
      <stop
         stop-color="#00d900"
         offset="0"
         id="stop31" />
      <stop
         stop-color="#0f0"
         offset="1"
         id="stop33" />
    </linearGradient>
    <linearGradient
       id="f">
      <stop
         stop-color="#fff"
         stop-opacity="0"
         offset="0"
         id="stop36" />
      <stop
         stop-opacity=".28044"
         offset="1"
         id="stop38" />
    </linearGradient>
    <linearGradient
       id="e">
      <stop
         stop-color="#fff"
         offset="0"
         id="stop41" />
      <stop
         stop-color="#d9d9d9"
         offset="1"
         id="stop43" />
    </linearGradient>
    <linearGradient
       id="h">
      <stop
         stop-color="#ff4343"
         offset="0"
         id="stop46" />
      <stop
         stop-color="#ffa5a5"
         offset="1"
         id="stop48" />
    </linearGradient>
    <linearGradient
       id="a">
      <stop
         stop-color="#ff0"
         offset="0"
         id="stop51" />
      <stop
         stop-color="#ffd700"
         offset=".5"
         id="stop53" />
      <stop
         stop-color="#ff0"
         offset="1"
         id="stop55" />
    </linearGradient>
    <linearGradient
       id="d">
      <stop
         stop-color="#9a0000"
         offset="0"
         id="stop58" />
      <stop
         stop-color="#e00000"
         offset="1"
         id="stop60" />
    </linearGradient>
    <linearGradient
       id="c">
      <stop
         stop-color="#eebd9f"
         offset="0"
         id="stop63" />
      <stop
         stop-color="#f2cbb4"
         offset="1"
         id="stop65" />
    </linearGradient>
    <linearGradient
       id="k"
       x1="116.58"
       x2="139.67"
       y1="250.69"
       y2="234"
       gradientUnits="userSpaceOnUse"
       xlink:href="#a" />
    <linearGradient
       id="l"
       x1="117.71"
       x2="139.59"
       y1="233.77"
       y2="252.52"
       gradientUnits="userSpaceOnUse"
       xlink:href="#a" />
    <linearGradient
       id="m"
       x1="108.62"
       x2="131.33"
       y1="191.92"
       y2="209.17"
       gradientUnits="userSpaceOnUse"
       xlink:href="#c" />
    <linearGradient
       id="n"
       x1="103"
       x2="154.25"
       y1="122.5"
       y2="173.75"
       gradientUnits="userSpaceOnUse"
       xlink:href="#c" />
    <linearGradient
       id="o"
       x1="161.64"
       x2="203.19"
       y1="157.53"
       y2="177.88"
       gradientUnits="userSpaceOnUse"
       xlink:href="#d" />
    <linearGradient
       id="p"
       x1="52.715"
       x2="93.66"
       y1="164.76"
       y2="193.45"
       gradientUnits="userSpaceOnUse"
       xlink:href="#d" />
    <linearGradient
       id="q"
       x1="174.81"
       x2="216.56"
       y1="154"
       y2="166.01"
       gradientUnits="userSpaceOnUse"
       xlink:href="#a" />
    <linearGradient
       id="r"
       x1="33.305"
       x2="87.147"
       y1="143.43"
       y2="188.05"
       gradientUnits="userSpaceOnUse"
       xlink:href="#a" />
    <linearGradient
       id="s"
       x1="131.46"
       x2="159.55"
       y1="208.57"
       y2="216.91"
       gradientUnits="userSpaceOnUse"
       xlink:href="#a" />
    <linearGradient
       id="t"
       x1="93.17"
       x2="122.59"
       y1="198.35"
       y2="216.25"
       gradientUnits="userSpaceOnUse"
       xlink:href="#a" />
    <linearGradient
       id="u"
       x1="122.74"
       x2="138.75"
       y1="181.55"
       y2="195.68"
       gradientUnits="userSpaceOnUse"
       xlink:href="#b" />
    <linearGradient
       id="v"
       x1="141.96"
       x2="147.26"
       y1="158.55"
       y2="160.18"
       gradientUnits="userSpaceOnUse"
       xlink:href="#e" />
    <linearGradient
       id="w"
       x1="109.71"
       x2="115.46"
       y1="159.2"
       y2="161.15"
       gradientUnits="userSpaceOnUse"
       xlink:href="#e" />
    <linearGradient
       id="x"
       x1="134.96"
       x2="155.68"
       y1="138.96"
       y2="143.33"
       gradientUnits="userSpaceOnUse"
       xlink:href="#b" />
    <linearGradient
       id="y"
       x1="101.51"
       x2="124.9"
       y1="139.62"
       y2="146.37"
       gradientUnits="userSpaceOnUse"
       xlink:href="#b" />
    <linearGradient
       id="z"
       x1="93.97"
       x2="114.91"
       y1="83.89"
       y2="91.14"
       gradientUnits="userSpaceOnUse"
       xlink:href="#b" />
    <linearGradient
       id="aa"
       x1="141.09"
       x2="158.84"
       y1="83.72"
       y2="90.321"
       gradientUnits="userSpaceOnUse"
       xlink:href="#b" />
    <linearGradient
       id="ab"
       x1="142.86"
       x2="151.5"
       y1="96.913"
       y2="106.04"
       gradientUnits="userSpaceOnUse"
       xlink:href="#g" />
    <linearGradient
       id="ac"
       x1="96.337"
       x2="101.3"
       y1="97.196"
       y2="110.77"
       gradientUnits="userSpaceOnUse"
       xlink:href="#g" />
    <linearGradient
       id="ad"
       x1="155.71"
       x2="148.41"
       y1="62.428"
       y2="52.678"
       gradientUnits="userSpaceOnUse"
       xlink:href="#h" />
    <linearGradient
       id="ae"
       x1="85.087"
       x2="94.337"
       y1="61.446"
       y2="55.196"
       gradientUnits="userSpaceOnUse"
       xlink:href="#h" />
    <linearGradient
       id="af"
       x1="111.59"
       x2="171.84"
       y1="46.696"
       y2="92.196"
       gradientUnits="userSpaceOnUse"
       xlink:href="#b" />
    <radialGradient
       id="i"
       cx="383.18"
       cy="491.83"
       r="16.882"
       gradientTransform="matrix(1.1378 .53828 -.25514 .5393 -170.73 -373)"
       gradientUnits="userSpaceOnUse"
       xlink:href="#f" />
    <radialGradient
       id="j"
       cx="339.75"
       cy="492.06"
       r="17.412"
       gradientTransform="matrix(.02476 .84049 -1.2656 .037282 710.65 -205.46)"
       gradientUnits="userSpaceOnUse"
       xlink:href="#f" />
  </defs>
  <g
     transform="translate(-705.5 6.5)"
     id="g190">
    <path
       d="m803.03 17-0.96875 0.15625c0.02732 11.288-1.7644 23.169 1.5625 34.156-3.6044 8.7534-5.2594 19.91-5.8125 33.75l0.03125 0.21875c0.35816 0.2604 0.70385 0.53616 1.0312 0.8125-0.00432 0.54348-0.03145 1.082-0.03125 1.625-3.9186-3.1268-8.77-4.987-13.281-4.5312-0.75602 0.07637-3.3003-3.6182-4.0312-3.4062-0.81967 0.23772 0.17842 4.3908-0.59375 4.8125 0.07755 0.86853-3.0729 1.6516-2.9375 2.4688 0.10907 0.65813 3.48 1.3747 3.625 2 2.4063 10.377 9.674 16.254 18.469 18.688 0.26626 1.975 0.53119 3.8741 0.875 5.5625-7.0495 7.4088-5.2209 16.915-4.9375 26.406v0.09375c0.01201 0.04165 0.01909 0.08344 0.03125 0.125-6.8741 0.34395-14.519-0.80858-22-4.4375l-23.031-12.938c1.8294 30.494 17.389 54.865 35.375 78.375-0.6254 0.61844-1.2126 1.2589-1.75 1.9375-5.6247 7.1028-6.7567 17.52-11.094 36.438 13.53 4.3407 27.762 3.4192 41.75 3.125 7.865-0.15455 15.557 0.2174 23.219 0.6875 2.878 4.7167 8.0528 7.875 13.969 7.875 5.2714 1e-5 9.94-2.5232 12.938-6.4062 2.1116 0.05602 4.2408 0.09595 6.375 0.09375 7.7078 1.293 16.628-0.55288 24.406-1.4375 12.72-2.0878 24.215-4.7882 38.188-6.25-4.2017-18.449-7.7175-31.06-13.438-38.281-1.709-2.1574-3.8008-4.0156-6.4688-5.6875 5.5816-6.2271 12.104-19.817 16.812-34.094 3.2188-12.781 8.9628-24.721 9.6562-38.344-10.153 8.6259-22.91 12.742-35.938 14.312 0.20985-5.6616-1.4912-11.511-5.6875-17.531 0.23481-3.8091 0.34858-7.5446 0.34375-11.188l0.8125-0.5625c5.1906-2.0112 9.6834-4.875 12.875-8.875l0.4375-0.3125 0.125-0.4375c2.0861-2.8494 3.5527-6.2483 4.1562-10.281 0.05685-0.37998 3.552-0.82736 3.5938-1.2188s-3.3701-0.71835-3.3438-1.125c-0.41821-0.22838 0.43331-3.8265 0-4-0.44343-0.17758-2.1686 3.06-2.625 2.9375-5.7276-1.5373-12.367 1.1782-17.062 5.75-0.05759-0.52157-0.12567-1.0185-0.1875-1.5312 0.34092-0.39698 0.68688-0.81609 1.0625-1.2188 0.28502-3.1654 0.34496-6.256 0.21875-9.2812l0.0625-1.0938-0.15625-0.59375c-0.8845-13.14-5.6142-24.712-13.562-33.219l-0.28125-0.4375c0.7504-8.739 0.09518-17.539-0.03125-23.531l-0.96875-0.15625c-1.5664 4.6339-3.7208 9.9775-7.25 15.938-7.5916-4.746-17.412-6.7698-28.188-6.7812-16.846 0.71975-29.106 3.2905-36.938 10.219-4.7143-7.0888-7.5068-13.756-9.4062-19.375zm20.531 165.84c0.04598 0.08348 0.2314 0.34142 0.3125 0.46875l-0.34375-0.4375 0.03125-0.03125zm30.719 26.219 0.03125 0.03125-0.21875 0.15625c0.06077-0.06412 0.12662-0.1236 0.1875-0.1875zm-12.906 34.25c3.0309 0.1951 6.0583 0.37062 9.0938 0.5625l1.9062 4.875c-3.8856-0.09488-7.4773-1.7357-10.031-4.3438l-0.21875-0.25c-0.07525-0.08052-0.14544-0.16777-0.21875-0.25l-0.34375-0.40625c-0.05591-0.06767-0.13289-0.1188-0.1875-0.1875zm11.25 0.6875 1.0312 0.0625-0.0625 0.21875-0.34375 1.2812-0.625-1.5625zm3.25 0.1875c2.2334 0.12244 4.4691 0.22999 6.7188 0.3125-1.3917 1.4309-3.0709 2.5773-4.9688 3.3125l-0.28125 0.09375c-0.80745 0.29324-1.6595 0.51362-2.5312 0.65625l1.0625-4.375z"
       fill-rule="evenodd"
       filter="url(#aj)"
       id="path94" />
    <g
       transform="translate(722.48 -9.5218)"
       id="g188">
      <path
         d="m96.321 196.78-18.708 5.5533c-6.5088 1.9391-11.05 5.3538-15.733 8.6621-5.9369 9.1501-7.546 23.246-10.43 35.886 0 0 12.551 3.3588 14.496 3.3588s42.073 0.17677 42.073 0.17677l32.173 1.4142 24.042 0.53033 44.371-7.6014-3.7123-18.208-9.1924-21.213-12.728-7.2478-18.738-5.6568-11.49 21.567-10.253 15.203-11.314-11.844-2.8373 2.0892-3.7944-1.0551-8.9246 10.103-12.551-16.971-5.4801-12.198-1.2678-2.5481z"
         fill="#1a1a1a"
         fill-rule="evenodd"
         id="path96" />
      <path
         d="m101.3 180.95-0.17678 10.783 4.0659 6.0104 18.031 19.445 3.9105 2.807 3.5141-2.4534 9.0156-8.3085 15.203-16.087 3.7123-3.5355s-0.70711-1.591-1.2374-3.3588-0.53033-9.8995-0.53033-9.8995l-10.43 5.8336-2.2981 4.0659-7.4246 4.5962-17.147 1.9445-11.137-2.8284-4.4194-5.1265-0.17678-1.591-2.4749-2.2981z"
         fill="url(#m)"
         fill-rule="evenodd"
         id="path98" />
      <path
         d="m116.09 47.196-23.75 6.5-12 13.25c-3.7754 8.9873-3.5359 19.982-4.75 30.25l-9.25-4.25-7.25 1 1.75 8.5 6 8.25 10.5 5.75 1.25 5.25-4.75 7.25-0.25 15.75 4.75 14 9 10.5 14 12 2.3713 2.5147c5.4895 7.7173 8.0649 5.9639 11.879 8.2353l19.75-0.25 7.75-3.75 3.75-5.75 11.75-6.5 14.5-13.25 7-18.5-1.25-10.5-4-9.75 1-8.75 14.5-10 3.5-12.25-8-1c-3.8423 1.473-7.8136 2.5592-10.75 6.75l-1.75-10.5-5.25-18-6-10-11-7.75-16.5-6-18.5 1z"
         fill="url(#n)"
         fill-rule="evenodd"
         id="path100" />
      <path
         d="m73.901 148.95h-11.667l-12.198-4.773-21.39-11.49 1.2374 10.607 6.0104 21.92 9.5459 18.385 18.031 25.986 7.0711-4.5962-17.324-22.804-12.905-25.279-4.9498-12.374 8.3085 6.1872 13.258 5.8336 15.556 1.7678 5.8336-0.35355-4.4194-9.0156z"
         fill="url(#r)"
         fill-rule="evenodd"
         id="path102" />
      <path
         d="m180.67 144.89 14.849-3.3588 9.3692-3.5355 11.667-7.7782-3.8891 20.506-6.5407 19.622-15.733 31.466-8.3085-3.5355 7.955-9.3692 9.8995-17.147 10.607-30.406-7.2478 4.0659-11.49 3.8891-13.081 1.0607 1.9445-5.4801z"
         fill="url(#q)"
         fill-rule="evenodd"
         id="path104" />
      <path
         d="m178.38 150.19 10.96-0.35356 13.965-4.773 7.2478-4.0659-3.7123 9.5459-4.9497 15.026-4.9498 12.021-14.142 20.506-18.385-5.1265 0.17677-1.7678-5.1265-3.2641-0.70711 1.3196-1.4142-3.0052-0.35355-9.8995 9.1924-6.5407 12.021-15.733 0.17678-3.8891z"
         fill="url(#o)"
         fill-rule="evenodd"
         id="path106" />
      <path
         d="m123.62 68c21.381 46.496 66.214 61.207 23.625 114.25l14.25-8.75 15.25-17.25 3.75-18.25-7.5-15.5 1.75-24.75-8.5-17c-5.949-23.109-22.294-24.709-33.5-25.5-6.7789 3.4303-7.4934 8.0329-9.125 12.75z"
         fill-opacity=".08333"
         fill-rule="evenodd"
         filter="url(#ag)"
         id="path108" />
      <path
         d="m79.75 103.88c0.25761-0.64403-6.5978-5.2555-7.75-4.625-0.7356 0.40251-7.5-0.25-7.5-0.25l2.625 7c4.5 3.9063 9 6.0652 13.5 8-3.3148-4.2388-2.12-7.189-0.875-10.125z"
         fill-opacity=".22348"
         fill-rule="evenodd"
         filter="url(#ai)"
         id="path110" />
      <path
         d="m172.12 102.62c0.5-0.875 6.75-4.25 6.75-4.25l9.375-0.625-2.125 6.25-10.25 7.5-4.25 1.125c1.4342-3.4601 2.361-6.8694 0.5-10z"
         fill-opacity=".18561"
         fill-rule="evenodd"
         filter="url(#ah)"
         id="path112" />
      <path
         d="m156.88 176.62-10.125 5-6.75 8.75-10.75 2.75c-0.32238 8.9978 3.1358 17.24-1.625 27.125l15.625-14.375 15.5-16.125c-3.1445-4.0951-1.3916-8.7343-1.875-13.125z"
         fill-opacity=".17424"
         fill-rule="evenodd"
         filter="url(#an)"
         id="path114" />
      <path
         d="m126.27 45.053c-12.133 0.04461-24.341 4.1077-35.875 9.4688-9.9733 5.8249-13.794 17.93-14.688 30.812-0.24797 3.5768-0.34512 7.2519-0.34375 10.906-3.9186-3.1268-8.7696-4.9963-13.281-4.5406-0.756 0.07637-3.315-3.5945-4.0459-3.3825-0.81966 0.23772 0.19271 4.3764-0.57946 4.798 0.07755 0.86853-3.0653 1.6487-2.9298 2.4659 0.10908 0.65813 3.4865 1.3622 3.6315 1.9876 2.4063 10.377 9.6598 16.269 18.455 18.703 0.26626 1.975 0.53119 3.8741 0.875 5.5625-7.0495 7.4088-5.2209 16.915-4.9375 26.406v0.09375c4.5209 15.68 19.648 24.853 30.969 35.5 0.00181 0.00985-0.00184 0.02141 0 0.03125 0.0562 0.30031 0.13404 0.58719 0.21875 0.875 3.1152 8.4243 13.632 9.4233 21.375 9.5312 7.8223-0.48634 18.099-2.3353 21.062-10.719 13.744-7.0077 24.955-15.618 32.75-29.469 4.0406-8.8545 3.8268-18.304-3.0625-28.188 0.24012-3.8951 0.35419-7.7167 0.34375-11.438 9.476-3.4637 16.826-9.651 18.406-20.203 0.05687-0.37998 3.5534-0.85402 3.5951-1.2454s-3.3707-0.70724-3.3444-1.1139c-0.41821-0.22838 0.43698-3.8317 0.00367-4.0052-0.44344-0.17758-2.1757 3.0759-2.6321 2.9534-5.7276-1.5373-12.363 1.1675-17.059 5.7393-0.99668-9.0266-2.6361-16.754-4.625-22.312-3.9468-11.03-10.569-17.912-19.719-22.781-7.9931-4.6245-16.261-6.468-24.562-6.4375zm-0.03125 1.75c8.0295-0.0991 16.051 1.5591 24.094 5.5938 8.9833 4.7804 14.69 11.585 18.562 22.406 2.2628 6.324 3.8744 14.058 4.5625 23.656-0.39523 0.47839-0.77423 0.96406-1.125 1.4688l0.8125 0.59375c4.6998-5.4019 12.289-9.8151 19.531-7.125-1.9845 10.229-10.242 19.641-21.219 21.562l-0.0625 1c0.78911-0.20435 1.5753-0.42097 2.3438-0.65625-0.06958 2.0909-0.17376 4.238-0.3125 6.4688-0.70846-0.94187-1.4467-1.867-2.25-2.75l-0.1875 0.65625c9.3008 11.796 9.0858 24.43 4.7188 34-6.5104 14.961-14.826 20.086-28.531 27.219 0.06877-1.8085-1.0967-3.0738-2.1562-5.1875l-0.15625-0.0625c4.6413 12.768-10.115 15.099-19.781 15.844-10.014 0.50399-24.485-1.9848-19.875-14.062l-0.5625-0.75c-0.97813 2.189-1.3572 4.1892-1.25 6l-0.03125-0.09375c-10.737-10.716-24.081-19.319-28.562-34.625-0.25227-12.008-1.1151-19.453 6.2188-29.188l-0.0625-0.59375c-0.50101 0.665-1.2415 0.69423-1.6875 1.3438-0.17569-0.88569-0.33598-1.8161-0.5-2.75 0.71023 0.14806 1.4318 0.29951 2.1562 0.40625l-0.0625-1c-10.977-0.76004-19.234-11.333-21.219-21.562 7.2424-2.6901 14.831 1.7231 19.531 7.125l0.8125-0.59375c-0.83808-1.2058-1.834-2.3357-2.9062-3.375-0.07058-3.9318 0.03091-7.9696 0.3125-12.031 0.88246-12.729 3.7649-23.549 13.312-29.125 12.025-5.7642 23.796-9.6677 35.531-9.8125zm57.219 49.5c-5.2841 0.33431-9.3733 4.5983-11.469 6.4375l0.53125 0.46875c3.807-3.7359 9.5024-6.2736 14.812-4.5625-1.7801 7.0075-8.912 11.555-16.062 13.812l-0.03125 0.6875c9.8546-1.2998 16.514-6.6415 17.875-15.625-1.9956-0.99327-3.8949-1.3302-5.6562-1.2188zm-115.94 1.2188c-1.3692 0.0906-2.8158 0.4738-4.3125 1.2188 1.3614 8.9835 8.0204 14.325 17.875 15.625l-0.03125-0.6875c-7.1506-2.258-14.282-6.805-16.062-13.812 5.3102-1.7112 11.005 0.82657 14.812 4.5625l0.53125-0.46875c-2.2701-1.9925-6.8795-6.8301-12.812-6.4375z"
         fill-rule="evenodd"
         id="path116" />
      <path
         d="m88.75 83.544 6.0104-0.53033 12.728 1.9446 9.0156 4.4194 0.53033 3.8891-7.4246-3.7123-10.253-1.591-9.0156 4.4194-2.1213-2.6516 0.53033-6.1872z"
         fill="url(#z)"
         fill-rule="evenodd"
         id="path118" />
      <path
         d="m132.06 91.322 2.4749-3.0052 9.1924-4.5962 16.263 0.17678 1.0607 4.2426-2.1213 4.773-8.6621-4.5962-7.0711 0.70711-9.1924 3.5355-2.1213 1.0607 0.17678-2.2981z"
         fill="url(#aa)"
         fill-rule="evenodd"
         id="path120" />
      <path
         d="m85.392 101.04 9.0156-6.0104 6.0104-2.4749 10.96 3.3588 8.8388 4.773-6.7175 5.1265-9.1924 4.0659-7.955-0.53033-7.6014-4.2426-3.3588-4.0659z"
         fill="#fff"
         fill-rule="evenodd"
         id="path122" />
      <path
         d="m163.53 101.57-9.0156-6.0104-6.0104-2.4749-10.96 3.3588-7.7782 4.2426 5.6568 5.6569 9.1924 4.0659 7.4246-0.88388 8.1317-3.8891 3.3588-4.0659z"
         fill="#fff"
         fill-rule="evenodd"
         id="path124" />
      <path
         d="m99.534 92.913-4.773 1.591-1.591 4.2426v5.3033l2.1213 4.4194 7.4246 2.2981 5.4801-1.9445 1.2374-7.4246-2.1213-6.5407-7.7782-1.9445z"
         fill="url(#ac)"
         fill-rule="evenodd"
         id="path126" />
      <path
         d="m85.392 101.04 9.0156-6.0104 6.0104-2.4749 10.96 3.3588 8.8388 4.773-6.7175 5.1265-9.1924 4.0659-7.955-0.53033-7.6014-4.2426-3.3588-4.0659z"
         fill="url(#j)"
         fill-rule="evenodd"
         id="path128" />
      <path
         d="m149.38 92.736 4.773 1.591 1.591 4.2426v5.3033l-2.1213 4.4194-7.4246 2.2981-5.4801-1.9445-1.2374-7.4246 2.1213-6.5407 7.7782-1.9445z"
         fill="url(#ab)"
         fill-rule="evenodd"
         id="path130" />
      <path
         d="m163.53 101.57-9.2656-7.1354-5.7604-1.3499-10.96 3.3588-7.7782 4.2426 5.6568 5.6569 9.1924 4.0659 7.4246-0.88388 8.1317-3.8891 3.3588-4.0659z"
         fill="url(#i)"
         fill-rule="evenodd"
         id="path132" />
      <path
         d="m94.337 82.678c-1.8266 0.04435-3.658 0.1916-5.5 0.40625-2.8348 3.7586-2.3779 7.3859 1.375 10.281h0.125l0.09375-0.09375c7.6904-6.0422 17.446-4.6273 26.031 0.59375l0.03125 0.03125c0.25879 0.12939 0.56754 0.18411 0.84375 0.09375 1.4303-1.5458 0.62752-3.4118-0.65625-4.9062l0.03125-0.03125-0.0625-0.03125c-6.705-4.9397-14.397-6.5359-22.312-6.3438zm57.406 0c-6.8667 0.24432-13.508 2.0215-19.375 6.3438l-0.0625 0.03125 0.03125 0.03125c-1.2838 1.4945-2.0865 3.3605-0.65625 4.9062 0.27621 0.09036 0.58497 0.03564 0.84375-0.09375l0.03125-0.03125c8.5852-5.2211 18.341-6.6359 26.031-0.59375l0.09375 0.09375h0.125c3.7529-2.8954 4.2098-6.5226 1.375-10.281-1.842-0.21465-3.6734-0.3619-5.5-0.40625-0.98942-0.02402-1.9566-0.0349-2.9375 0zm-55.062 1.2188c6.6361-0.04524 12.503 1.7535 18.719 5.5938 0.38088 1.4834 0.96301 2.2188 1.625 3.5-0.00875 0.01626 0.00345 0.02468 0 0.03125-9.201-6.126-18.022-7.5217-26.812-1.625-2.1252-2.1685-1.3363-4.6886-0.46875-6.8438 2.4226-0.4157 4.7255-0.64117 6.9375-0.65625zm55.656 0c2.212 0.01508 4.5149 0.24055 6.9375 0.65625 0.86757 2.1551 1.6565 4.6752-0.46875 6.8438-8.7903-5.8967-17.611-4.501-26.812 1.625-0.00345-0.00657 0.00876-0.01499 0-0.03125 0.66199-1.2812 1.2441-2.0166 1.625-3.5 6.2159-3.8402 12.083-5.639 18.719-5.5938zm-52.438 8.75c-1.5944 0.08257-3.169 0.45945-4.6875 1.25l-0.0625 0.03125-0.09375 0.0625-0.09375 0.03125c-0.01542 0.01759-0.01595 0.04492-0.03125 0.0625-3.2388 2.0197-7.1037 4.5029-9.9375 6.9688 2.8892 5.3644 11.311 9.1297 17.906 9.875 5.6521-0.42945 12.408-4.6494 17.5-10.688-6.1785-2.6361-13.591-7.9515-20.5-7.5938zm47.906 0c-6.53 0.29882-13.395 5.1224-19.188 7.5938 5.0922 6.0381 11.848 10.258 17.5 10.688 6.5953-0.74532 15.017-4.5106 17.906-9.875-2.8338-2.4658-6.6987-4.949-9.9375-6.9688-0.0153-0.01758-0.01582-0.04491-0.03125-0.0625l-0.09375-0.03125-0.09375-0.0625-0.0625-0.03125c-1.5186-0.79055-3.0931-1.1674-4.6875-1.25-0.43182-0.02236-0.87717-0.01992-1.3125 0zm-47.812 1.1562c2.1739-0.00629 4.3342 0.62022 6.5 1.4688 2.4077 4.2655 2.0735 9.131 0.03125 13.344l0.125 0.0625c-1.1416 0.35389-2.2907 0.56911-3.4375 0.65625-2.1872 0.16618-4.4611-0.12517-6.75-0.90625-3.5531-4.1715-3.4079-9.0937-0.90625-13.625l0.09375-0.0625h0.03125l0.03125-0.03125c1.4198-0.62293 2.8536-0.90212 4.2812-0.90625zm49.031 0c1.4277 0.00413 2.8615 0.28332 4.2812 0.90625l0.03125 0.03125h0.03125l0.09375 0.0625c2.5016 4.5313 2.6468 9.4535-0.90625 13.625-2.2889 0.78108-4.5628 1.0724-6.75 0.90625-1.1468-0.08714-2.2959-0.30236-3.4375-0.65625l0.125-0.0625c-2.0422-4.2128-2.3764-9.0783 0.03125-13.344 2.1658-0.84853 4.3261-1.475 6.5-1.4688zm-40.906 2.1562c3.4462 1.5208 6.8559 3.4367 10.156 4.375-3.2345 3.6984-6.5979 6.2836-10 7.7188 4.0624-4.7795 3.1446-7.5283-0.15625-12.094zm32.781 0c-3.3008 4.5655-4.2186 7.3143-0.15625 12.094-3.4021-1.4351-6.7655-4.0203-10-7.7188 3.3004-0.9383 6.71-2.8542 10.156-4.375zm-47.938 0.875c-2.0175 3.6876-1.5256 7.2521 1.4062 10.75-2.4587-1.1747-4.9193-2.9526-7.2812-5.4062 1.8973-1.6891 3.8497-3.6226 5.875-5.3438zm63.094 0c2.0253 1.7212 3.9777 3.6547 5.875 5.3438-2.362 2.4536-4.8226 4.2315-7.2812 5.4062 2.9318-3.4979 3.4238-7.0624 1.4062-10.75zm-54.844 1.0312c-2.098 0-3.8125 1.7282-3.8125 3.875s1.7145 3.9063 3.8125 3.9062 3.8125-1.7595 3.8125-3.9062-1.7145-3.875-3.8125-3.875zm46.594 0c-2.098 0-3.8125 1.7282-3.8125 3.875s1.7145 3.9062 3.8125 3.9062 3.8125-1.7595 3.8125-3.9062-1.7145-3.875-3.8125-3.875z"
         fill-rule="evenodd"
         id="path134" />
      <path
         d="m129.56 110.58-0.25-0.125c0.15984 5.745 0.23441 11.502 0.40625 17.25 0.03544 0.95551 0.08325 1.7864 0.125 2.375 0.24941 1.9648 3.2692 1.8143 4.8438 2.4688 1.8129 1.1048 0.00616 3.3267-1 4.5625-1.8456-0.29341-3.5706-1.6558-5.4062-2.0938-2.3751-0.39754-5.12 2.0059-7.1875 2.7812-0.97274-0.75309-0.81257-3.2205-0.8125-4.4062 1.2378-0.70886 3.0993-0.73488 4.1875-1.9375 0.24246-0.74596 0.45686-2.1101 0.65625-3.875 0.49298-5.3876 1.0362-10.803 0.9375-16.219h-0.25c-0.71757 5.3446-1.1146 10.729-1.6875 16.094-0.19702 1.7439-0.42005 3.1531-0.59375 3.6875-0.99066 1.1849-3.6463 0.91434-4.6875 2.1875-0.23526 1.9397 0.1499 3.9274 1.7812 4.9062 2.2263-0.49386 5.1029-2.066 7.4688-2.25 1.9769 0.43315 3.6721 1.5827 5.6875 1.75 2.6343-1.2193 3.9334-4.7151 1.875-6.2812-1.5667-0.38455-4.1018-0.42578-4.8125-1.4688-0.04021-0.56691-0.08978-1.3627-0.125-2.3125-0.20747-5.8-0.99514-11.294-1.1562-17.094z"
         fill-rule="evenodd"
         id="path136" />
      <path
         d="m106.25 152.84 0.70711 5.3033 3.3588 11.314 2.6516-2.2981 1.7678-13.081-8.4853-1.2374z"
         fill="url(#w)"
         fill-rule="evenodd"
         id="path138" />
      <path
         d="m140.55 153.37-0.7071 7.0711 3.182 7.7782 1.9445-3.5355 2.2981-12.551-6.7175 1.2374z"
         fill="url(#v)"
         fill-rule="evenodd"
         id="path140" />
      <path
         d="m154.51 145.58c-0.09569 0.92156-0.28347 1.115-0.01951 1.85-18.153 7.4822-37.909 7.7076-55.57 2.1107 0.46227-0.85864 0.58513-1.7622 0.51394-2.9635l-0.46968-0.00504c-0.48382 1.7396-1.8437 3.46-2.903 5.4683l-0.07541 0.18144c0.59461-0.71187 1.7965-0.97366 2.383-1.787l6.9274 3.6417c1.4777 5.1486 2.1777 11.871 5.3308 17.057 4.6002-3.4687 4.5028-10.112 4.3504-15.338 8.2986 1.6453 16.076 1.1109 24.45-1.1573-0.26797 4.5519-0.46969 11.294 3.6141 14.368 4.7888-3.9742 2.5582-12.074 5.1902-17.007 2.2343-0.84075 4.4618-1.8132 6.6599-2.9158 0.68576 1.0997 1.8068 1.8541 2.7465 2.7284l0.17241-0.44452c-1.1327-1.7682-2.3818-3.5034-2.6581-5.5914l-0.64226-0.19641zm-8.3759 6.8475c-1.1329 4.8036-0.36305 10.269-2.9305 14.657-3.1521-3.1316-2.3919-8.7883-2.1173-12.836 1.8961-0.48295 3.1681-1.1632 5.0478-1.8208zm-38.656 2.1082c2.1284 0.46628 4.2559 0.85185 6.4138 1.1422-0.02389 4.2944 0.33156 10.009-3.0486 13.258-2.9347-4.1756-1.61-9.8501-3.3651-14.4z"
         fill-rule="evenodd"
         id="path142" />
      <path
         d="m121.81 179-6.1872 3.182-0.35355 7.0711-0.53033 9.7227 4.4194-1.591 3.3588-9.5459 2.4749 1.2374 0.70711 5.1265-4.9498 16.794 4.773-1.0607 6.364-5.6568 1.7678-8.8388 1.9446-8.3085 3.182 4.5962-2.8284 13.435 4.0659-3.7123 3.3588-5.8336-0.53033-9.7227-3.7123-6.5407-6.1872-3.0052-4.0659-4.0659-2.6516-0.17677"
         fill="url(#u)"
         fill-rule="evenodd"
         id="path144" />
      <path
         d="m127.68 170.83c-4.2944 0.86517-2.8993 4.8378-5.75 7.2188-1.4775 0.85396-3.8371 1.4566-5.8125 2.0938-3.8828 3.2254-1.4844 8.1405-1.0625 12.594l-1.1562 7.0938c3.6619 0.09037 6.2517-2.0864 7.5312-5.0938 0.70111-1.988 0.34315-4.6398 1.2812-6.5312 1.3448 0.26975 1.5611 1.2905 1.9375 2.4688 0.34163 1.6653 0.22797 3.9984-0.15625 6.5312l-4.5625 14.594c8.0879-0.99727 12.319-5.2745 14.5-12.875 0.5981-3.8207-0.38463-6.6525 0.96875-10.312 2.7943 1.0121 2.6657 2.8909 2.5625 5.4688l-2.75 11.875c4.533-2.2877 7.9178-6.7979 8.7812-11.656 0.39425-3.8919 0.28421-7.7215-0.625-9.6875-1.7263-4.1878-5.23-6.9294-9.6562-8.1562-3.0356-1.5121-2.4059-4.924-6.0312-5.625zm0.03125 2.1875c2.968 0.79837 2.7707 3.0685 5.75 4.4062 4.1458 1.1492 6.5045 3.7117 8.1562 7.7188 0.81538 1.7631 0.43383 5.4594 0.0625 9.125-0.34022 3.3585-0.50987 6.6146-4 8.9062 0.30658-2.4996 1.5094-5.7521 1.7188-8.9688 0.33913-3.5519-0.91572-6.604-4.2812-8-2.4273 3.6651-2.3165 7.7814-2.4375 11.969-0.69038 6.8977-3.8668 10.085-10.156 11.594 1.4657-3.163 2.2444-7.6311 2.9688-12.406 0.39393-2.5968 0.5101-5.0291 0.125-6.9062-0.34846-1.9856-1.3619-2.8459-3.1562-3.4062-1.6897 1.7305-1.9284 4.5012-2.6562 6.7812-0.84639 2.5318-1.9718 3.7394-4.5312 4.4375 0.13696-1.618 1.0168-3.1874 1.4062-5.3438 1.1628-4.1664-3.1612-7.7461 0.25-11.188 1.724-0.4329 3.9158-1.9434 5.5-2.8438 3.4817-1.7413 1.4602-4.9904 5.2812-5.875z"
         fill-rule="evenodd"
         id="path146" />
      <path
         d="m75.087 93.696 3.8839-26.755 11.616-22.495 16.25-6.25 13.5-2.5c8.4167-0.0996 16.833 0.46771 25.25 2.25l16.75 11.25 8.5 13.25 5.5 21-0.5 10.5-4.5 4.75-3.75 10 1.5 10.5 1 4.25-7.75 0.75 3.5-13.5 0.75-24.5c-0.37254-6.0959-2.0448-11.821-4.75-17.25l-20.5-13.25c-3.3062-0.60838-6.5498-1.4676-10.5 0.5-3.703 1.4086-5.3651 6.0825-7.5 10l-6.75-8.5-8-2.25-9.5 3-15.5 13.75-2.25 14.75 1.25 14 5.6339 23.854s-7.6339-1.3536-7.3839-2.3536l2-8c0.4977-5.9334-0.24969-10.898-2.75-14.5l-5-6.25z"
         fill="url(#af)"
         fill-rule="evenodd"
         id="path148" />
      <path
         d="m79.558 28.036 9.7227 19.976 16.263 15.91 0.88388 4.5962-4.5962 4.9498-5.8336 1.591-8.6621-5.3033-6.5407-9.8995-1.7678-15.026 0.53033-16.794z"
         fill="url(#ae)"
         fill-rule="evenodd"
         id="path150" />
      <path
         d="m162.11 27.329v10.783l-0.35355 12.198-4.0659 14.142-6.1872 8.3085-4.2426 1.7678-5.4801-0.53033-7.0711-6.8943 0.53033-3.3588 9.7227-7.955 9.8995-13.258 7.2478-15.203z"
         fill="url(#ad)"
         fill-rule="evenodd"
         id="path152" />
      <path
         d="m79.556 25.522-0.96875 0.15625c0.02732 11.288-1.7644 23.169 1.5625 34.156-3.6044 8.7534-5.2594 19.91-5.8125 33.75l0.03125 0.21875c4.824 3.5072 6.7825 8.4912 7.9062 14.125 1.3886 5.4273-1.5941 10.869-2 15.875 2.7202 0.37537 5.8735 0.29756 8.5938 1.75-2.4498-11.342-5.1489-23.116-6.6562-34.406-0.00109-0.02337 0.00108-0.03916 0-0.0625-0.38561-7.1854 0.80727-14.413 4.9562-20.553 6.2227 7.224 13.934 8.9504 20.638-3.6973 0.00417-0.03115 0.02759-0.06264 0.03125-0.09375h-0.03125c0.55931-4.5585-4.0026-5.7829-6.9697-8.1777 3.75-1.6483 7.2056-2.8135 11.095-2.3536 6.279 3.3845 8.8096 7.2971 11.875 12.094 1.2977-5.4172 3.5822-11.367 9.625-12.438 2.4942-0.28613 5.3542 0.39297 8.4062 1.3125-3.0364 3.1938-9.2138 4.3329-8.75 9.5625h-0.03125c0.00366 0.03111 0.02708 0.0626 0.03125 0.09375 7.907 14.919 18.938 9.3337 24.938-1 5.8599 6.2688 8.5778 15.167 8.1875 24.062-0.13396 12.118-1.03 23.944-4.25 35.656 2.9062-0.47966 5.8125-2.8587 8.7188-1.375-1.58-9.5629-5.4373-18.753 5.375-30.344 1.604-17.813-3.4253-33.683-13.719-44.5 0.76758-8.7799 0.09578-17.636-0.03125-23.656l-0.96875-0.15625c-1.5664 4.6339-3.7218 9.9891-7.2509 15.949-7.5916-4.746-17.412-6.7815-28.187-6.7929-16.846 0.71975-29.095 3.2923-36.926 10.221-4.7143-7.0888-7.5184-13.758-9.4179-19.377zm0.46875 5.5312c4.1744 11.252 11.217 25.66 23.812 32.219 1.3462 1.2396 1.4538 2.4792 1.4062 3.7188-5.0176 8.7875-10.357 8.1664-15.844 3.8125-5.9-5.413-8.2653-12.047-9.0938-20.875-0.74046-7.8897-0.48596-12.836-0.28125-18.875zm80.844 0c0.74122 14.187 0.73275 28.77-9.375 39.75-5.487 4.354-10.826 4.975-15.844-3.8125-0.67281-2.7097 0.31031-3.9306 1.8184-4.7357 12.662-6.7599 17.686-17.183 23.4-31.202zm-8.4053 12.978c-2.9214 4.7943-4.4544 7.8535-8.368 11.597-3.5126-1.0089-7.1796-0.91701-10.789-0.76164-5.1976 0.76498-8.5644 5.316-10.25 9.9688-3.8363-6.2412-6.8558-8.6122-10.875-9.5938-4.4501-0.58162-8.9847 0.15471-13.188 1.875-2.8018-2.549-5.385-5.5992-7.7188-8.8438 8.4916-8.2289 20.109-12.067 34.062-11.594 9.8061-1.1145 18.819 2.4968 27.126 7.3526zm9.8428 7.2411c8.2522 9.6709 13.155 23.921 12.75 42.344-6.8975 7.1413-10.104 17.075-5.9375 29.062-2.0956-0.56709-3.7663 0.29695-5.5938 1.1875 3.3335-10.244 4.1691-23.366 3.6875-33.938 0.51606-12.108-2.6301-19.738-8.5938-25.188 2.2069-4.1612 3.588-8.9607 3.6875-13.469zm-80.906 11.688c1.0061 2.2072 2.2568 4.2789 3.6562 6.0938-4.0753 6.5927-4.5624 14.385-4.4375 21.938 1.3536 8.9037 4.7044 22.276 6.5312 32.125-1.8852-0.78589-3.2672-0.408-5.2812-0.65625 1.3228-4.3184 2.1734-9.9532 1.4688-15.094-0.76176-5.5576-2.9796-10.58-7.8125-14.188 0.30529-12.017 2.3487-22.065 5.875-30.219z"
         fill-rule="evenodd"
         id="path154" />
      <path
         d="m89.634 137.28 8.4853 3.5355 18.031 0.35356 8.8388-1.0607 1.4142 5.4801-0.70711 3.3588-10.253-1.2374-11.314-2.2981-7.955-3.3588-6.5407-4.773z"
         fill="url(#y)"
         fill-rule="evenodd"
         id="path156" />
      <path
         d="m130.12 139.76 14.496-0.35355 13.435-2.1213 8.1317-3.8891-5.3033 5.1265-7.6014 3.8891-11.844 3.8891-10.253 2.4749-1.591-4.773 1.591-4.2426h-1.0607z"
         fill="url(#x)"
         fill-rule="evenodd"
         id="path158" />
      <path
         d="m168.37 130.83c-9.2764 8.0344-23.305 8.5011-38 8.0625l-0.34375 0.03125-0.15625 0.3125c-1.0958 3.2241-1.5151 6.7354 0.8125 9.5625l0.1875 0.21875 0.25-0.03125c13.366-2.7973 30.834-6.6626 37.25-18.156zm-81.719 4.1562c7.4862 10.827 25.272 12.994 38.844 14.5h0.25l0.15625-0.21875c2.0466-3.0367 1.2742-6.4893-0.125-9.5938l-0.15625-0.3125-0.34375 0.03125c-14.586 1.8423-28.623 2.704-38.625-4.4062zm76.188 0.6875c-7.3 6.5683-15.472 7.5009-30.562 12.062-1.4529-2.6045-2.0627-4.6478-0.875-7.4688 12.626 0.36271 22.222 0.86084 31.438-4.5938zm-70.219 3.5938c9.6945 4.5482 19.216 3.1313 31.75 1.5625 1.4521 2.6945 1.0409 4.7997-0.15625 7.5312-15.458-3.0972-23.699-3.2538-31.594-9.0938z"
         fill-rule="evenodd"
         id="path160" />
      <path
         d="m99.587 190.82 5.375 6.625c6.0593 8.2981 13.089 14.655 20.125 21l-8.875 12.125-9.25-12.125-11-22.25 3.625-5.375z"
         fill="url(#t)"
         fill-rule="evenodd"
         id="path162" />
      <path
         d="m159.21 188.32-13.5 14.875-14.25 14 10.75 11.625 9.625-12.625 12.375-24.25-5-3.625z"
         fill="url(#s)"
         fill-rule="evenodd"
         id="path164" />
      <path
         d="m217.49 129.12c-10.3 8.7502-23.277 12.856-36.5 14.375l-0.21875 3.0312c12.4-0.40539 24.705-7.9792 34.531-15.406-1.176 7.8088-4.5955 21.858-9.1875 35.781-4.7364 14.36-12.034 27.889-17.375 33.719-1.743-1.0232-2.3185-1.5424-4.5625-2.4688 9.3635-11.18 14.088-20.178 17.25-28.969l10.094-29.188c-9.7916 6.9245-19.449 9.029-31.438 8.9375l-0.75 2.8438c11.458 1.4458 21.609-4.0892 30.031-9.3125-4.2046 9.6666-6.2039 17.9-9.2188 26.281-3.161 8.788-8.8091 17.256-18.25 28.469-4.8725-1.9255-9.7007-3.2184-17.356-5.1648-0.19196-0.0488 0.27722-1.0261 0.08165-1.0758l-5.5669-3.5871c-0.17515 0.23067-0.57514 0.72351-0.75222 0.95267-1.7838-3.7276-0.20833-9.6574 0.03125-12.438l-2.375 1.0312c-0.25076 2.9099-0.55111 8.1853 1.625 12.281-9.1988 10.727-18.84 21.985-30.307 30.328-0.8036-0.40069-1.2676-1.3758-1.8813-1.9884-8.944-7.894-17.765-15.854-23.624-26.308 1.0288-3.5443 0.79464-7.3877 0.59375-9.7188l-2.75-1.6562c0.18114 2.1018 1.9131 7.516 1.2188 10.594l-1.0312-0.625-4.3125 5.4062c0.27555 0.22286 0.31627 0.56247 0.46875 0.84375-12.231 3.0492-19.476 4.773-25.312 7.8438-15.819-16.706-27.226-40.558-34.344-57.656 11.98 9.6646 26.011 14.139 41.938 12.812l-0.875-1.8438c-16.148 0.58505-28.998-3.3074-43.344-13.75 7.0603 16.958 18.229 44.26 34.656 61.719-1.934 1.086-2.7053 1.6278-4.125 2.9062-17.576-21.598-32.551-43.588-34.938-73.875 6.0566 3.4691 12.648 6.8635 20.531 10.688 8.2282 3.9913 16.809 6.9798 24.469 6.2812l-0.1875-2.8438c-7.3348 0.66885-15.687-0.38706-23.844-4.3438l-23.031-12.938c1.8294 30.494 17.389 54.865 35.375 78.375-0.6254 0.61844-1.2126 1.2589-1.75 1.9375-5.6247 7.1028-6.7567 17.52-11.094 36.438 13.53 4.3407 27.762 3.4192 41.75 3.125 19.176-0.37681 37.324 2.2697 56.5 2.25 7.7078 1.293 16.628-0.55288 24.406-1.4375 12.72-2.0878 24.215-4.7882 38.188-6.25-4.2017-18.449-7.7175-31.06-13.438-38.281-1.709-2.1574-3.8008-4.0156-6.4688-5.6875 5.5816-6.2271 12.104-19.817 16.812-34.094 3.2188-12.781 8.9628-24.721 9.6562-38.344zm-58.279 59.306 4.625 3.3134c-5.4485 12.908-13.19 24.809-21.331 35.986l-9.9125-10.81c5.9516-6.6461 25.879-24.464 26.618-28.489zm-59.127 2.9442c1.2507 2.2705 15.854 21.312 24.062 27.312l-7.6875 11.125c-6.4886-3.9548-19.597-32.916-19.938-34.25l3.5625-4.1875zm64.531 1.75c18.157 4.6587 25.625 9.3199 30.719 15.75 5.4705 6.9059 8.2946 16.258 12.5 34.719-12.469 0.98586-24.411 4.3707-36.344 6.1875-7.6316 1.1365-15.56 2.0722-22.062 0.9375h-0.09375c-6.7313 0.14007-13.458-0.01559-20.188-0.21875 1.3862-9.4309 1.6407-18.79 2.0625-28.344-1.1192-1.0947-1.7352-1.7127-2.8438-2.3125 0.92349-0.61717 1.6688-1.4426 2.4299-2.2415l11.57 12.398c8.8235-11.453 16.17-23.787 22.25-36.875zm-68.344 3.9375c4.1458 13.296 11.346 24.141 19.844 33.906l0.4375 0.46875 8.5-12.281c1.726 1.044 3.667 1.7401 5.1562 3.0938 0.493 9.6507-0.62174 18.937-2.0938 28.219-12.067-0.376-24.148-0.92035-36.312-0.5-13.173 0-28.118 0.36342-39.188-3.5 4.2062-18.476 4.5798-27.001 9.875-33.688 5.1504-6.504 13.91-10.764 33.781-15.719z"
         fill-rule="evenodd"
         id="path166" />
      <path
         d="m135.71185,230.3968-7.5,5.875-7.375-5-1.5625,1.1875 3.3125,8.9375-7.25,5.6875 .4375,2.3125 9.9375-.5625 3.5,8.9375 1.625-.3125 2.5-9.5625 9.5-.3125 .4375-2.3125-8.1875-5.0625 2.25-8.8125-1.625-1zm-.5625,2.75-1.3125,6.25-3.8125-2.1875 5.125-4.0625zm-13.5,1.0625 5.3125,3.25-3.25,2.6875-2.0625-5.9375zm7.3125,4 4.5,3.4375-1.6875,5.125-5.3125.125-1.8125-5.375 4.3125-3.3125zm5.8125,4 5.5625,3.625-6.75.25 1.1875-3.875zm-11.625.75 1.5,4.125-6.6875.3125 5.1875-4.4375zm8.1875,5.375-1.6875,6.25-2.125-5.9375 3.8125-.3125z"
         fill="url(#l)"
         fill-rule="evenodd"
         id="path168" />
      <path
         d="m128.31 219.4c-2.1635-0.10715-3.3114 1.1057-4.1562 2.9375-0.62203 1.71-0.69982 3.7475-0.75 5.1875v0.53125c0.72667-0.54479 1.7585-0.70818 2.8125-0.84375l-0.0625-0.21875c-0.2025-2.0043-0.26342-3.7466 1.3125-5.125 1.326-0.1024 1.9122 0.29803 2.625 1.2812l0.3125 3.7812 2.5625 0.40625-0.0625-0.3125c0.16084-1.59 0.2747-3.4433-0.28125-4.9688-0.81664-1.9309-2.3148-2.4645-4.2812-2.6562h-0.03125zm-0.46875 7.4375c-4.6806 1.2547-8.7802 2.5676-13.125 8.8438-2.2932 5.8586-1.7419 9.5772-0.4375 13.906 2.136 3.1665 3.5301 6.2414 8.3125 8.5 3.7021 1.1935 7.5064 1.2627 11.375 0.625 4.0833-2.4583 6.8352-2.4622 10.562-11.125 0.81797-4.375 0.60423-9.625-2.8125-14.438-4.1626-4.7859-8.8813-6.347-13.875-6.3125zm1.7812 2c0.41764-0.01086 0.84399-0.01032 1.2812 0 3.7341 0.59628 7.1822 2.551 10.25 6.3125 2.9766 4.271 2.2504 8.8383 1.125 13.438-2.4339 6.412-8.1409 8.0796-12.812 9.0625-6.3607 0.5498-10.815-4.013-13.938-9.375-2.4253-8.777 1.1469-19.101 14.094-19.438z"
         fill="url(#k)"
         fill-rule="evenodd"
         id="path170" />
      <path
         d="m129.02 226.77c-9.0264 0-16.375 7.3486-16.375 16.375s7.3486 16.375 16.375 16.375 16.375-7.3486 16.375-16.375-7.3486-16.375-16.375-16.375zm0.05734 0.25454c8.4846 0 15.834 7.5786 15.834 16.063s-7.3492 16.006-15.834 16.006-16.063-7.5212-16.063-16.006 7.5786-16.063 16.063-16.063zm-0.11468 1.449c-8.3812 0-14.671 6.4623-14.671 14.843s6.405 14.583 14.786 14.583 14.499-6.3163 14.499-14.698-6.2329-14.729-14.614-14.729zm0.05734 0.48391c2.1916 1e-5 4.2424 0.55266 6.0938 1.4375l-6.875 5.7188-7.0625-4.7812c2.2469-1.4946 4.9383-2.375 7.8438-2.375zm6.6433 1.6c0.26253 0.14459 1.0619 0.71994 1.2232 0.96783l-1.9138 7.9183-0.86336-0.44731 1.196-5.8295-0.25092-0.36742-10.237 8.2402-0.35891-1.2794 11.205-9.2027zm1.8254 1.2437c3.4544 2.5844 5.7188 6.6902 5.7188 11.344 0 0.62499-0.1094 1.209-0.1875 1.8125l-7.7424-4.9946 2.2112-8.1616zm-16.719-0.09283 7.095 4.6004-0.99594 0.73078-5.017-3.2402-0.49778 0.28439 4.6648 12.435-1.1026 0.13258-5.471-13.876c0.24748-0.21847 1.0634-0.86759 1.3245-1.0669zm-1.75 1.3741 3.375 8.4688-7 5.25c-0.31687-1.179-0.5625-2.3761-0.5625-3.6562 0-3.9364 1.6042-7.4951 4.1875-10.062zm15.812 0.40625-1.3438 5.5-3-1.8438h-0.0625l4.4062-3.6562zm-12.875 0.9375 4.75 2.9688-2.625 2.1875-0.03125 0.125-2.0938-5.2812zm8.3567 3.1755 12.736 7.833c-0.06013 0.30772-0.35981 1.4033-0.43972 1.7018l-8.8915 0.5183 0.41606-1.2665 6.5505-0.29198 0.11742-0.53975-11.087-7.2683 0.59819-0.68658zm-1.3567 0.76202 4.25 3.0625-1.5938 5.2188h-5.2188l-1.6562-5.2188 4.2188-3.0625zm4.4536 3.3295 1.0401 0.57989-3.6585 14.913c-0.25715 0.02531-1.0509 0.15298-1.3116 0.16384l-3.3223-8.2901 0.983 0.0442 2.404 5.7045 0.58394-0.28347 3.2812-12.832zm1.4839 0.7955 5.1562 3.1875-6 0.40625-0.03125 0.03125 0.875-3.625zm-12.345-0.63925 0.28347 1.0272-4.9697 4.2973 0.12278 0.56564 13.371-0.76072-0.19508 1.191-14.736 0.96875c-0.13312-0.31149-0.58742-1.6329-0.6973-1.954l6.8214-5.3352zm0.50092 1.2955 1.4062 3.5625 0.09375 0.0625-6.1875 0.4375 4.6875-4.0625zm19.312 4.5938c-1.6761 4.8512-5.8475 8.4957-11.031 9.3438l2.2188-9.0938 8.8125-0.25zm-11.188 0.71875-1.375 5.6875-2.1562-5.375 3.4688-0.25 0.0625-0.0625zm-5.5312 0.4375 3.2522 8.375c-5.379-0.13135-10.182-3.2402-12.471-7.75l9.2188-0.625z"
         fill-rule="evenodd"
         id="path172" />
      <path
         d="m78.144 158.14-10.43-0.35356-12.728-2.2981-14.319-6.5407-5.6568-4.5962 4.9497 12.551 11.314 20.86 18.208 27.4 15.203-5.3033 11.49-3.0052 0.17678-1.591 3.182-4.5962 1.7678 1.591 0.17677-11.314-5.3033-4.4194-10.96-9.8995-7.0711-8.4853z"
         fill="url(#p)"
         fill-rule="evenodd"
         stroke="#000"
         id="path174" />
      <path
         d="m128.31 219.4c-2.1635-0.10715-3.3114 1.1057-4.1562 2.9375-0.62203 1.71-0.69982 3.7475-0.75 5.1875v0.53125c0.72667-0.54479 1.7585-0.70818 2.8125-0.84375l-0.0625-0.21875c-0.2025-2.0043-0.26342-3.7466 1.3125-5.125 1.326-0.1024 1.9122 0.29803 2.625 1.2812l0.3125 3.7812 2.5625 0.40625-0.0625-0.3125c0.16084-1.59 0.2747-3.4433-0.28125-4.9688-0.81664-1.9309-2.3148-2.4645-4.2812-2.6562h-0.03125zm-0.03125 0.4375c1.5904 0.24673 3.2566 1.0269 4 2.375 0.39372 1.0803 0.27247 3.4458 0.15625 4.8438l-1.75-0.21875c-0.00706-1.1201 0.26303-2.801-0.15625-3.875-0.70694-1.3608-1.77-1.5085-3.1875-1.5625-1.6831 1.5879-1.6864 3.44-1.6875 5.6562l-1.7188 0.46875c0.06172-1.3369 0.35041-3.6984 0.8125-4.9688 0.46587-1.992 2.0743-2.4611 3.5312-2.7188z"
         fill-rule="evenodd"
         id="path176" />
      <path
         transform="matrix(1.3947 0 0 1.2046 -377.38 -499.35)"
         d="m343.5 495.61a2.375 2.75 0 1 1 -4.75 0 2.375 2.75 0 1 1 4.75 0z"
         fill="#fff"
         id="path178" />
      <path
         transform="matrix(1.3947 0 0 1.2046 -331.01 -498.85)"
         d="m343.5 495.61a2.375 2.75 0 1 1 -4.75 0 2.375 2.75 0 1 1 4.75 0z"
         fill="#fff"
         id="path180" />
      <path
         d="m131.5 111.88 2.125 15.625c3.5526-6.1449 7.9704-11.73 17.125-14.25-6.5552 1.4816-13.026 1.7834-19.25-1.375z"
         fill-opacity=".13258"
         fill-rule="evenodd"
         filter="url(#am)"
         id="path182" />
      <path
         d="m91.5 113.75c9.0428 0.70206 15.955 4.0358 30.25-1.75l-1.625 17.5c-9.4274-9.114-17.574-13.625-28.625-15.75z"
         fill="#fff"
         fill-opacity=".26136"
         fill-rule="evenodd"
         filter="url(#al)"
         id="path184" />
      <path
         d="m101.65 40.644c3.4501-2.5087 4.6298-2.8876 9.0156-2.1213 1.7314 7.1852 7.1353 13.758 11.49 20.506-5.3033-3.791-7.0711-7.9217-12.374-5.6569-2.5807-4.2589-2.1905-8.8891-8.1317-12.728z"
         fill="#fff"
         fill-rule="evenodd"
         filter="url(#ak)"
         id="path186" />
    </g>
  </g>
</svg>
